<?xml version="1.0" standalone="no"?>
<!DOCTYPE svg PUBLIC "-//W3C//DTD SVG 20010904//EN"
 "http://www.w3.org/TR/2001/REC-SVG-20010904/DTD/svg10.dtd">
<svg version="1.0" xmlns="http://www.w3.org/2000/svg"
 width="500.000000pt" height="500.000000pt" opacity="0.5" viewBox="0 0 500.000000 500.000000"
 preserveAspectRatio="xMidYMid meet">

<g transform="translate(0.000000,500.000000) scale(0.100000,-0.100000)"
fill="#ffffff" stroke="none">
<path d="M2270 4924 c-14 -2 -65 -9 -115 -15 -272 -33 -603 -142 -847 -279
-652 -368 -1095 -991 -1222 -1717 -9 -48 -16 -96 -16 -106 0 -16 33 -17 585
-15 l586 3 34 102 c66 198 159 348 310 499 180 180 389 295 640 351 106 23
339 28 460 10 270 -42 498 -159 701 -362 156 -156 258 -322 319 -517 l27 -88
589 0 589 0 -6 43 c-119 809 -621 1498 -1349 1852 -231 112 -450 182 -695 220
-99 16 -528 30 -590 19z"/>
<path d="M2290 3270 c-41 -11 -118 -41 -170 -67 -82 -40 -109 -61 -195 -148
-119 -119 -172 -211 -210 -361 -49 -193 -29 -377 62 -564 41 -82 60 -108 147
-195 86 -86 115 -108 196 -148 129 -64 225 -87 364 -87 63 0 139 7 176 15 299
70 524 288 602 585 27 105 27 286 -1 394 -76 291 -305 512 -601 581 -94 21
-276 19 -370 -5z"/>
<path d="M75 2148 c20 -160 80 -384 145 -547 322 -810 1036 -1380 1900 -1517
164 -27 578 -27 735 -1 261 43 471 110 701 223 732 357 1232 1046 1347 1857
l6 37 -589 0 -589 0 -17 -57 c-134 -470 -548 -835 -1029 -908 -629 -95 -1219
270 -1416 875 l-27 85 -587 3 -587 2 7 -52z"/>
</g>
</svg>
